<svg xmlns="http://www.w3.org/2000/svg" width="48" height="48" fill="none"><path fill="#000" d="M0 0h48v48H0z"/><path fill="#fff" d="M19.273 35.852c0-.17.137-.308.307-.308h.923c.17 0 .307.138.307.308v.924c0 .17-.138.308-.307.308h-.923a.308.308 0 0 1-.307-.308v-.924zm1.537-3.078c0-.17.138-.308.308-.308h.922c.17 0 .308.138.308.308v.923c0 .17-.138.308-.308.308h-.922a.308.308 0 0 1-.308-.308v-.923zm1.61.89a.248.248 0 0 0 .269.269c.138-.013.299-.025.427-.025.13 0 .29.012.428.025a.248.248 0 0 0 .27-.27 4.94 4.94 0 0 1-.026-.427c0-.13.012-.29.025-.429a.248.248 0 0 0-.269-.269 4.921 4.921 0 0 1-.428.025c-.128 0-.29-.012-.427-.025a.248.248 0 0 0-.27.27c.014.138.026.299.026.428 0 .128-.012.29-.025.428z"/><path fill="#fff" d="M17.735 35.852c0-.17.138-.308.308-.308h.922c.17 0 .308.138.308.308v.924c0 .17-.138.308-.308.308h-.922a.308.308 0 0 1-.308-.308v-.924zm-1.366.645c-.217.275.14.632.414.415a.295.295 0 0 1 .366 0c.275.217.632-.14.414-.415a.296.296 0 0 1 0-.366c.218-.275-.14-.632-.414-.415a.295.295 0 0 1-.366 0c-.274-.217-.631.14-.414.415a.295.295 0 0 1 0 .366zm2.904-5.262c0-.17.137-.308.307-.308h.923c.17 0 .307.137.307.308v.923c0 .17-.138.308-.307.308h-.923a.308.308 0 0 1-.307-.308v-.924zm-1.366.645c-.218.274.14.632.414.414a.294.294 0 0 1 .366 0c.274.218.631-.14.414-.414a.295.295 0 0 1 0-.367c.217-.275-.14-.632-.414-.415a.295.295 0 0 1-.366 0c-.275-.217-.632.14-.415.415a.295.295 0 0 1 0 .366zm-1.243-.058c-.175.222-.037.36.184.184.087-.068.144-.068.23 0 .222.175.36.038.185-.184-.069-.086-.069-.165 0-.252.174-.221.058-.359-.163-.184-.086.069-.165.069-.252 0-.22-.175-.358-.037-.184.184.069.087.069.166 0 .252zm.098-1.547c-.164.208-.115.257.092.092.081-.064.136-.064.216 0 .208.165.257.116.093-.092-.064-.08-.064-.155 0-.236.164-.208.135-.257-.073-.092-.08.064-.155.064-.236 0-.207-.165-.256-.116-.092.092.064.08.064.155 0 .236zm.066-1.551c-.126.16-.12.166.04.04a.17.17 0 0 1 .212 0c.159.126.166.12.04-.04a.171.171 0 0 1 0-.212c.126-.16.119-.166-.04-.04a.193.193 0 0 1-.228 0c-.159-.126-.165-.12-.04.04.05.062.065.15.016.212zm.058-1.594c-.109.139-.103.144.035.035.054-.043.05-.043.104 0 .138.11.144.104.034-.034-.042-.055-.042-.05 0-.105.11-.138.104-.143-.034-.034-.054.043-.063.043-.117 0-.138-.11-.144-.104-.035.034.043.055.056.05.013.105zm3.924-.513c0-.17.138-.308.308-.308h.922c.17 0 .308.138.308.308v.923c0 .17-.138.308-.308.308h-.922a.308.308 0 0 1-.308-.308v-.923zm-1.465.89a.248.248 0 0 0 .268.269c.139-.013.3-.025.428-.025.13 0 .29.012.428.025a.248.248 0 0 0 .269-.27 4.9 4.9 0 0 1-.025-.428c0-.128.012-.29.025-.428a.248.248 0 0 0-.269-.269c-.138.013-.3.025-.428.025s-.29-.012-.428-.025a.248.248 0 0 0-.268.27c.013.137.025.299.025.427 0 .13-.012.29-.025.429zm3.003-5.508c0-.17.137-.308.307-.308h.923c.17 0 .307.138.307.308v.924c0 .17-.138.307-.307.307h-.923a.308.308 0 0 1-.307-.308V22zm-1.466.89a.248.248 0 0 0 .27.27c.137-.014.298-.026.427-.026s.29.012.428.025a.248.248 0 0 0 .268-.269 4.938 4.938 0 0 1-.024-.428c0-.129.011-.29.025-.429a.248.248 0 0 0-.27-.269 4.899 4.899 0 0 1-.427.025c-.129 0-.29-.012-.428-.025a.248.248 0 0 0-.269.27c.013.138.025.299.025.428s-.012.29-.025.428zm-1.239-.294c-.186.236.029.45.264.264.092-.072.154-.072.246 0 .235.187.45-.028.264-.264-.073-.092-.05-.176.022-.268.187-.236-.028-.451-.264-.265-.091.073-.176.073-.268 0-.235-.186-.45.029-.264.264.073.093.073.177 0 .269z"/><path fill="#fff" d="M17.735 34.313c0-.17.138-.308.308-.308h.922c.17 0 .308.138.308.308v.923c0 .17-.138.308-.308.308h-.922a.308.308 0 0 1-.308-.307v-.924zm-1.265.677c-.2.252.03.481.28.282.098-.077.31-.077.408 0 .25.199.48-.03.281-.281-.078-.098-.053-.334.024-.432.199-.251-.03-.48-.281-.282-.098.078-.334.078-.431 0-.251-.199-.48.03-.282.282.078.098.078.334 0 .432zm2.803-5.295c0-.17.137-.308.307-.308h.923c.17 0 .307.138.307.308v.924c0 .17-.138.308-.307.308h-.923a.308.308 0 0 1-.307-.308v-.924zm-1.266.678c-.199.251.03.48.281.282.098-.078.31-.078.407 0 .251.198.48-.031.282-.282-.078-.098-.054-.334.024-.432.198-.251-.03-.48-.282-.282-.098.078-.333.078-.431 0-.25-.198-.48.031-.281.282.077.098.077.334 0 .432zm2.803-5.295c0-.17.138-.308.308-.308h.922c.17 0 .308.137.308.308V26c0 .17-.138.308-.308.308h-.922A.308.308 0 0 1 20.81 26v-.924zm-1.366.645c-.217.274.14.632.414.414a.295.295 0 0 1 .366 0c.275.218.632-.14.415-.415a.295.295 0 0 1 0-.366c.217-.275-.14-.632-.415-.415a.295.295 0 0 1-.366 0c-.274-.217-.631.14-.414.415a.296.296 0 0 1 0 .366zm2.904-5.263c0-.17.137-.308.307-.308h.923c.17 0 .307.138.307.308v.923c0 .17-.138.308-.307.308h-.923a.308.308 0 0 1-.307-.308v-.923zm-1.366.645c-.218.274.14.632.414.414a.295.295 0 0 1 .366 0c.274.218.631-.14.414-.414a.296.296 0 0 1 0-.367c.217-.274-.14-.632-.414-.414a.295.295 0 0 1-.366 0c-.275-.218-.632.14-.414.414a.295.295 0 0 1 0 .367zm-1.339-.049c-.186.235.029.45.264.264.092-.073.154-.073.246 0 .235.187.45-.029.264-.264-.073-.092-.05-.177.022-.269.187-.235-.028-.45-.264-.264-.091.073-.176.073-.268 0-.235-.187-.45.029-.264.264.073.092.073.177 0 .269zm-1.836 12.608a.248.248 0 0 0 .269.269c.138-.013.299-.025.428-.025s.29.012.427.025a.248.248 0 0 0 .27-.27 4.94 4.94 0 0 1-.026-.427c0-.13.012-.29.025-.429a.248.248 0 0 0-.268-.269 4.89 4.89 0 0 1-.428.025 4.89 4.89 0 0 1-.428-.025.248.248 0 0 0-.269.27c.013.138.025.299.025.428 0 .128-.012.29-.025.428zm-1.239-.294c-.186.235.029.45.264.264.092-.073.154-.073.245 0 .236.187.45-.029.265-.264-.073-.092-.05-.177.022-.269.187-.235-.028-.45-.264-.264-.092.073-.176.073-.268 0-.235-.187-.45.029-.264.264.073.092.073.177 0 .269zm2.705-5.214c0-.17.137-.308.307-.308h.923c.17 0 .307.138.307.308v.924c0 .17-.138.307-.307.307h-.923a.308.308 0 0 1-.307-.308v-.923zm-1.266.678c-.199.25.03.48.281.281.098-.077.31-.077.407 0 .251.199.48-.03.282-.281-.078-.098-.054-.334.024-.432.198-.251-.03-.48-.282-.282-.098.078-.333.078-.431 0-.25-.198-.48.03-.281.282.077.098.077.334 0 .432zm.098-1.621c-.186.235.03.45.265.264.092-.073.153-.073.245 0 .236.187.45-.029.264-.264-.073-.092-.05-.177.023-.269.186-.235-.029-.45-.264-.264-.092.073-.176.073-.268 0-.236-.187-.45.029-.265.264.073.092.073.177 0 .269zm0-1.539c-.186.235.03.45.265.264.092-.073.153-.073.245 0 .236.186.45-.029.264-.264-.073-.093-.05-.177.023-.269.186-.236-.029-.45-.264-.264-.092.072-.176.072-.268 0-.236-.187-.45.028-.265.264.073.092.073.176 0 .268zm0-1.54c-.186.236.03.451.265.265.092-.073.153-.073.245 0 .236.186.45-.03.264-.265-.073-.092-.05-.176.023-.268.186-.236-.029-.451-.264-.265-.092.073-.176.073-.268 0-.236-.186-.45.03-.265.265.073.092.073.176 0 .268zm.097-1.547c-.175.221-.037.359.184.184.086-.069.144-.069.23 0 .221.175.36.037.184-.184-.068-.087-.068-.166 0-.252.175-.222.059-.36-.162-.184-.087.068-.166.068-.252 0-.221-.175-.359-.038-.184.184.068.086.068.165 0 .252zm.098-1.547c-.164.207-.115.256.092.092.08-.064.135-.064.216 0 .207.164.256.115.092-.092-.064-.081-.064-.156 0-.237.164-.207.135-.256-.072-.092-.08.064-.155.064-.236 0-.207-.164-.256-.115-.092.092.064.081.064.156 0 .237zm.066-1.552c-.126.16-.12.166.04.04a.17.17 0 0 1 .212 0c.159.126.165.12.04-.04a.171.171 0 0 1 0-.212c.125-.16.119-.166-.04-.04a.193.193 0 0 1-.228 0c-.16-.126-.166-.12-.04.04.05.062.065.15.015.212zm2.444 4.05c0-.17.138-.308.308-.308h.922c.17 0 .308.138.308.308v.924c0 .17-.138.308-.308.308h-.922a.308.308 0 0 1-.308-.308v-.924zm-1.266.678c-.198.251.03.48.282.282.098-.078.309-.078.407 0 .25.198.48-.031.281-.282-.077-.098-.053-.334.024-.432.199-.251-.03-.48-.281-.282-.098.078-.333.078-.431 0-.251-.198-.48.031-.282.282.078.098.078.334 0 .432zm2.804-5.296c0-.17.137-.307.307-.307h.923c.17 0 .307.137.307.308v.923c0 .17-.138.308-.307.308h-.923a.308.308 0 0 1-.307-.308v-.924zm-1.366.646c-.218.274.14.632.414.414a.295.295 0 0 1 .366 0c.274.218.631-.14.414-.415a.296.296 0 0 1 0-.366c.217-.275-.14-.632-.414-.415a.295.295 0 0 1-.366 0c-.275-.217-.632.14-.414.415a.295.295 0 0 1 0 .366zm-1.339-.049c-.186.235.029.45.264.264.092-.073.154-.073.246 0 .235.186.45-.029.264-.264-.073-.093-.05-.177.022-.269.187-.236-.028-.45-.264-.264-.091.072-.176.072-.268 0-.235-.187-.45.028-.264.264.073.092.073.176 0 .268zm-4.294 16.849c-.11.138-.104.144.034.035.054-.043.05-.043.104 0 .138.109.144.103.035-.035-.043-.054-.043-.05 0-.104.109-.138.103-.144-.035-.035-.054.043-.063.043-.117 0-.138-.109-.144-.103-.035.035.043.054.056.05.014.104zm-.059-3.024c-.125.159-.119.166.04.04a.17.17 0 0 1 .212 0c.16.126.166.119.04-.04a.171.171 0 0 1 0-.213c.126-.159.12-.166-.04-.04a.194.194 0 0 1-.227 0c-.16-.126-.166-.119-.04.04.05.063.064.15.015.213zm10.503-4.59c-.186.236.029.45.264.264.092-.072.154-.072.246 0 .235.187.45-.028.264-.264-.073-.092-.05-.176.023-.268.186-.236-.029-.451-.264-.265-.092.073-.177.073-.269 0-.235-.186-.45.029-.264.264.073.093.073.177 0 .269zm-1.537 4.618c-.186.235.029.45.264.264.092-.073.153-.073.245 0 .236.187.45-.029.264-.264-.072-.092-.05-.177.023-.269.186-.235-.029-.45-.264-.264-.092.073-.176.073-.268 0-.235-.187-.45.029-.264.264.072.092.072.177 0 .269zm.096 1.53c-.175.222-.037.36.184.185.086-.069.144-.069.23 0 .222.175.36.037.184-.184-.068-.087-.068-.166 0-.252.175-.222.059-.36-.162-.184-.086.068-.166.068-.252 0-.221-.176-.359-.038-.184.184.069.086.069.165 0 .252zm.098 1.532c-.164.208-.115.257.092.092.081-.064.135-.064.216 0 .207.165.256.116.092-.092-.064-.08-.064-.155 0-.236.164-.208.136-.257-.072-.092-.08.064-.155.064-.236 0-.207-.165-.256-.116-.092.092.064.08.064.155 0 .236zm-9.225-1.539c-.164.207-.115.256.092.092.08-.064.135-.064.216 0 .207.164.256.115.092-.092-.064-.081-.064-.155 0-.236.164-.208.135-.257-.072-.093-.081.065-.155.065-.236 0-.207-.164-.256-.115-.092.093.064.08.064.155 0 .236zm7.295.065c-.218.275.139.632.413.415a.295.295 0 0 1 .366 0c.275.217.632-.14.415-.415a.295.295 0 0 1 0-.366c.217-.275-.14-.633-.415-.415a.295.295 0 0 1-.366 0c-.274-.218-.631.14-.414.415a.296.296 0 0 1 0 .366zm-1.71-5.263c0-.17.138-.308.308-.308h.922c.17 0 .308.138.308.308v.924c0 .17-.138.308-.308.308h-.922a.308.308 0 0 1-.308-.308v-.924zm1.538-3.078c0-.17.137-.308.307-.308h.923c.17 0 .307.138.307.308v.923c0 .17-.138.308-.307.308h-.923a.308.308 0 0 1-.307-.308v-.923z"/><path fill="#fff" d="M22.348 23.538c0-.17.137-.308.307-.308h.923c.17 0 .307.138.307.308v.924c0 .17-.138.308-.307.308h-.923a.308.308 0 0 1-.307-.308v-.924zm1.537-4.618c0-.17.138-.307.308-.307h.922c.17 0 .308.137.308.308v.923c0 .17-.138.308-.308.308h-.922a.308.308 0 0 1-.308-.308v-.924zm1.538-4.617c0-.17.137-.308.307-.308h.923c.17 0 .307.138.307.308v.923c0 .17-.137.308-.307.308h-.923a.308.308 0 0 1-.307-.308v-.923z"/><path fill="#fff" d="M23.885 14.303c0-.17.138-.308.308-.308h.922c.17 0 .308.138.308.308v.923c0 .17-.138.308-.308.308h-.922a.308.308 0 0 1-.308-.308v-.923zm-1.537 0c0-.17.137-.308.307-.308h.923c.17 0 .307.138.307.308v.923c0 .17-.138.308-.307.308h-.923a.308.308 0 0 1-.307-.308v-.923z"/><path fill="#fff" d="M20.81 14.303c0-.17.138-.308.308-.308h.922c.17 0 .308.138.308.308v.923c0 .17-.138.308-.308.308h-.922a.308.308 0 0 1-.308-.308v-.923zm6.15-3.079c0-.17.138-.308.308-.308h.922c.17 0 .308.138.308.308v.924c0 .17-.138.308-.308.308h-.922a.308.308 0 0 1-.308-.308v-.924zm-1.537 0c0-.17.137-.308.307-.308h.923c.17 0 .307.138.307.308v.924c0 .17-.137.308-.307.308h-.923a.308.308 0 0 1-.307-.308v-.924z"/><path fill="#fff" d="M23.885 11.224c0-.17.138-.308.308-.308h.922c.17 0 .308.138.308.308v.924c0 .17-.138.308-.308.308h-.922a.308.308 0 0 1-.308-.308v-.924zm-4.612 23.089c0-.17.137-.308.307-.308h.923c.17 0 .307.138.307.308v.923c0 .17-.138.308-.307.308h-.923a.308.308 0 0 1-.307-.307v-.924zm1.537-3.078c0-.17.138-.308.308-.308h.922c.17 0 .308.137.308.308v.923c0 .17-.138.308-.308.308h-.922a.308.308 0 0 1-.308-.308v-.924zm0-3.079c0-.17.138-.308.308-.308h.922c.17 0 .308.138.308.308v.924c0 .17-.138.307-.308.307h-.922a.308.308 0 0 1-.308-.308v-.923zm1.538-3.078c0-.17.137-.308.307-.308h.923c.17 0 .307.137.307.308V26c0 .17-.138.308-.307.308h-.923a.308.308 0 0 1-.307-.308v-.924zm1.537-4.618c0-.17.138-.308.308-.308h.922c.17 0 .308.138.308.308v.923c0 .17-.138.308-.308.308h-.922a.308.308 0 0 1-.308-.308v-.923zm1.538-4.618c0-.17.137-.308.307-.308h.923c.17 0 .307.138.307.308v.923c0 .17-.137.308-.307.308h-.923a.308.308 0 0 1-.307-.308v-.923z"/><path fill="#fff" d="M23.885 15.842c0-.17.138-.308.308-.308h.922c.17 0 .308.138.308.308v.923c0 .17-.138.308-.308.308h-.922a.308.308 0 0 1-.308-.308v-.923zm-1.537 0c0-.17.137-.308.307-.308h.923c.17 0 .307.138.307.308v.923c0 .17-.138.308-.307.308h-.923a.308.308 0 0 1-.307-.308v-.923z"/><path fill="#fff" d="M20.81 15.842c0-.17.138-.308.308-.308h.922c.17 0 .308.138.308.308v.923c0 .17-.138.308-.308.308h-.922a.308.308 0 0 1-.308-.308v-.923zm-1.537 0c0-.17.137-.308.307-.308h.923c.17 0 .307.138.307.308v.923c0 .17-.138.308-.307.308h-.923a.308.308 0 0 1-.307-.308v-.923zm7.687-3.078c0-.17.138-.308.308-.308h.922c.17 0 .308.138.308.308v.923c0 .17-.138.308-.308.308h-.922a.308.308 0 0 1-.308-.308v-.923zm-1.537 0c0-.17.137-.308.307-.308h.923c.17 0 .307.138.307.308v.923c0 .17-.137.308-.307.308h-.923a.308.308 0 0 1-.307-.308v-.923z"/><path fill="#fff" d="M23.885 12.764c0-.17.138-.308.308-.308h.922c.17 0 .308.138.308.308v.923c0 .17-.138.308-.308.308h-.922a.308.308 0 0 1-.308-.308v-.923zm-1.537 0c0-.17.137-.308.307-.308h.923c.17 0 .307.138.307.308v.923c0 .17-.138.308-.307.308h-.923a.308.308 0 0 1-.307-.308v-.923zm1.537 9.235c0-.17.138-.308.308-.308h.922c.17 0 .308.138.308.308v.924c0 .17-.138.307-.308.307h-.922a.308.308 0 0 1-.308-.308V22zm1.538-4.618c0-.17.137-.308.307-.308h.923c.17 0 .307.138.307.308v.924c0 .17-.137.308-.307.308h-.923a.308.308 0 0 1-.307-.308v-.924z"/><path fill="#fff" d="M23.885 17.381c0-.17.138-.308.308-.308h.922c.17 0 .308.138.308.308v.924c0 .17-.138.308-.308.308h-.922a.308.308 0 0 1-.308-.308v-.924zm-1.537 0c0-.17.137-.308.307-.308h.923c.17 0 .307.138.307.308v.924c0 .17-.138.308-.307.308h-.923a.308.308 0 0 1-.307-.308v-.924z"/><path fill="#fff" d="M20.81 17.381c0-.17.138-.308.308-.308h.922c.17 0 .308.138.308.308v.924c0 .17-.138.308-.308.308h-.922a.308.308 0 0 1-.308-.308v-.924zm-1.537 0c0-.17.137-.308.307-.308h.923c.17 0 .307.138.307.308v.924c0 .17-.138.308-.307.308h-.923a.308.308 0 0 1-.307-.308v-.924z"/><path fill="#fff" d="M17.735 17.381c0-.17.138-.308.308-.308h.922c.17 0 .308.138.308.308v.924c0 .17-.138.308-.308.308h-.922a.308.308 0 0 1-.308-.308v-.924zm-1.465.89a.248.248 0 0 0 .268.27c.138-.014.3-.026.428-.026.13 0 .29.012.428.025a.248.248 0 0 0 .269-.269 4.902 4.902 0 0 1-.025-.428c0-.129.012-.29.025-.428a.248.248 0 0 0-.269-.27c-.138.014-.3.026-.428.026s-.29-.012-.428-.025a.248.248 0 0 0-.268.269c.013.138.024.3.024.428a4.9 4.9 0 0 1-.024.428zm1.537-1.539a.248.248 0 0 0 .269.27c.138-.014.299-.026.428-.026s.29.012.427.025a.248.248 0 0 0 .27-.269 4.938 4.938 0 0 1-.026-.428c0-.129.012-.29.025-.429a.248.248 0 0 0-.268-.269 4.89 4.89 0 0 1-.428.025 4.89 4.89 0 0 1-.428-.025.248.248 0 0 0-.269.27c.013.138.025.299.025.428s-.012.29-.025.428zm1.538-1.539a.248.248 0 0 0 .268.269c.139-.013.3-.025.428-.025.13 0 .29.012.428.025a.248.248 0 0 0 .269-.27 4.9 4.9 0 0 1-.025-.428c0-.128.012-.29.025-.428a.248.248 0 0 0-.269-.269c-.138.013-.3.025-.428.025s-.29-.012-.428-.025a.248.248 0 0 0-.268.27c.013.138.025.299.025.428 0 .128-.012.29-.025.428zm1.537-1.54a.248.248 0 0 0 .27.27c.137-.013.298-.025.427-.025s.29.012.428.025a.248.248 0 0 0 .268-.27 4.938 4.938 0 0 1-.024-.428c0-.128.011-.29.025-.428a.248.248 0 0 0-.27-.27 4.544 4.544 0 0 1-.427.026c-.129 0-.29-.012-.428-.025a.248.248 0 0 0-.269.269c.013.138.025.3.025.428 0 .129-.012.29-.025.428zm1.538-1.539a.248.248 0 0 0 .269.27c.138-.014.299-.026.427-.026.13 0 .29.012.428.025a.248.248 0 0 0 .27-.269 4.94 4.94 0 0 1-.026-.428c0-.129.012-.29.025-.428a.248.248 0 0 0-.269-.27 4.565 4.565 0 0 1-.428.026c-.128 0-.29-.012-.427-.025a.248.248 0 0 0-.27.269c.014.138.026.3.026.428 0 .129-.012.29-.025.428zm-7.589 5.912c-.217.275.14.632.415.415a.295.295 0 0 1 .366 0c.274.217.631-.14.414-.415a.295.295 0 0 1 0-.366c.217-.275-.14-.632-.414-.415a.295.295 0 0 1-.366 0c-.275-.217-.632.14-.415.415a.296.296 0 0 1 0 .366zm1.538-1.539c-.217.275.14.632.414.415a.295.295 0 0 1 .366 0c.275.217.632-.14.414-.415a.296.296 0 0 1 0-.366c.218-.275-.14-.633-.414-.415a.295.295 0 0 1-.366 0c-.274-.218-.631.14-.414.415a.295.295 0 0 1 0 .366zm1.538-1.539c-.218.274.14.632.414.414a.295.295 0 0 1 .366 0c.274.218.631-.14.414-.414a.295.295 0 0 1 0-.367c.217-.274-.14-.632-.414-.414a.294.294 0 0 1-.366 0c-.275-.218-.632.14-.415.414a.295.295 0 0 1 0 .367zm1.537-1.539c-.217.274.14.632.414.414a.295.295 0 0 1 .366 0c.275.218.632-.14.415-.415a.295.295 0 0 1 0-.366c.217-.275-.14-.632-.415-.415a.295.295 0 0 1-.366 0c-.274-.217-.631.14-.414.415a.296.296 0 0 1 0 .367zm1.538-1.539c-.218.274.14.631.414.414a.295.295 0 0 1 .366 0c.274.217.631-.14.414-.415a.296.296 0 0 1 0-.366c.217-.275-.14-.632-.414-.415a.295.295 0 0 1-.366 0c-.275-.217-.632.14-.414.415a.295.295 0 0 1 0 .366zm-7.588 6.189c-.198.251.03.48.281.282.098-.078.31-.078.407 0 .251.198.48-.031.282-.282-.078-.098-.053-.334.024-.432.199-.251-.03-.48-.281-.282-.098.078-.334.078-.432 0-.25-.198-.48.031-.281.282.078.098.078.334 0 .432zm1.538-1.539c-.199.25.03.48.28.281.099-.077.31-.077.408 0 .25.199.48-.03.281-.281-.077-.098-.053-.334.025-.432.198-.251-.03-.48-.282-.282-.098.078-.333.078-.431 0-.25-.198-.48.03-.281.282.077.098.077.334 0 .432zm1.538-1.54c-.2.252.03.48.28.282.098-.078.31-.078.408 0 .25.199.48-.03.281-.282-.078-.098-.053-.333.024-.431.199-.252-.03-.48-.281-.282-.098.078-.334.078-.431 0-.251-.199-.48.03-.282.282.078.098.078.333 0 .431zm1.537-1.539c-.199.251.03.48.281.282.098-.078.31-.078.407 0 .251.198.48-.03.282-.282-.078-.098-.054-.334.024-.432.198-.25-.03-.48-.282-.281-.098.077-.333.077-.431 0-.25-.199-.48.03-.281.281.077.098.077.334 0 .432zm1.537-1.539c-.198.251.03.48.282.282.098-.078.309-.078.407 0 .25.198.48-.031.281-.282-.077-.098-.053-.334.024-.432.199-.251-.03-.48-.281-.282-.098.078-.333.078-.431 0-.251-.198-.48.031-.282.282.078.098.078.334 0 .432zm-7.589 6.075c-.186.236.029.451.264.265.092-.073.154-.073.246 0 .235.186.45-.03.264-.265-.073-.092-.05-.176.023-.268.186-.236-.029-.451-.264-.265-.092.073-.177.073-.269 0-.235-.186-.45.03-.264.265.073.092.073.176 0 .268zm1.538-1.539c-.186.236.028.45.264.264.092-.072.154-.072.245 0 .236.187.45-.028.264-.264-.072-.092-.05-.176.023-.268.187-.236-.028-.451-.264-.265-.092.073-.176.073-.268 0-.236-.186-.45.029-.264.264.073.093.073.177 0 .269zm1.537-1.539c-.186.235.03.45.264.264.092-.073.154-.073.246 0 .235.187.45-.029.264-.264-.073-.092-.05-.177.023-.269.186-.235-.029-.45-.264-.264-.092.073-.177.073-.269 0-.235-.187-.45.029-.264.264.073.092.073.177 0 .269zm1.538-1.539c-.186.235.029.45.264.264.092-.073.154-.073.245 0 .236.186.45-.029.265-.264-.073-.092-.05-.177.022-.269.187-.236-.028-.45-.264-.264-.092.072-.176.072-.268 0-.235-.187-.45.028-.264.264.073.092.073.177 0 .269zm1.537-1.54c-.186.236.03.451.265.265.092-.073.153-.073.245 0 .236.186.45-.03.264-.265-.073-.092-.05-.176.023-.268.186-.236-.029-.451-.264-.265-.092.073-.176.073-.268 0-.236-.186-.45.03-.265.265.073.092.073.176 0 .268zm-7.591 6.15c-.175.22-.037.358.184.183.086-.068.144-.068.23 0 .222.175.36.037.184-.184-.068-.086-.068-.166 0-.252.175-.221.059-.36-.162-.184-.086.068-.166.068-.252 0-.221-.175-.359-.037-.184.184.069.086.069.166 0 .252zm.098-1.548c-.164.207-.115.256.092.092.081-.064.135-.064.216 0 .207.164.256.116.092-.092-.064-.081-.064-.155 0-.236.164-.208.136-.257-.072-.093-.08.064-.155.064-.236 0-.207-.164-.256-.115-.092.093.064.08.064.155 0 .236zm.066-1.552c-.126.16-.12.167.04.04a.17.17 0 0 1 .212 0c.159.127.165.12.04-.04a.171.171 0 0 1 0-.212c.125-.159.119-.166-.04-.04a.194.194 0 0 1-.228 0c-.159-.126-.166-.119-.04.04.05.063.065.15.016.213zm1.537-1.539c-.126.16-.119.166.04.04a.171.171 0 0 1 .212 0c.16.126.166.12.04-.04a.171.171 0 0 1 0-.212c.126-.16.12-.166-.04-.04a.194.194 0 0 1-.227 0c-.16-.126-.166-.12-.04.04.049.062.064.15.015.212zm-1.479-.054c-.11.138-.103.144.035.035.054-.043.05-.043.103 0 .138.11.144.103.035-.035-.043-.054-.043-.05 0-.104.11-.138.103-.144-.035-.034-.053.042-.063.042-.117 0-.138-.11-.143-.104-.034.034.042.054.056.05.013.104zm1.538-1.539c-.11.138-.104.144.034.035.054-.043.05-.043.104 0 .138.109.144.103.035-.035-.043-.054-.043-.05 0-.104.109-.138.103-.144-.035-.035-.054.043-.063.043-.117 0-.138-.109-.144-.103-.035.035.043.054.056.05.014.104zm1.479.054c-.126.16-.12.166.04.04a.17.17 0 0 1 .212 0c.159.126.166.12.04-.04a.171.171 0 0 1 0-.212c.126-.16.119-.166-.04-.04a.194.194 0 0 1-.228 0c-.159-.126-.165-.12-.04.04.05.062.065.15.016.212zm-1.603 3.091c-.165.207-.116.256.092.092.08-.064.135-.064.216 0 .207.164.256.115.092-.092-.064-.081-.064-.156 0-.237.164-.207.135-.256-.072-.092-.081.064-.155.064-.236 0-.208-.164-.257-.115-.093.092.065.081.065.156 0 .237zm1.537-1.539c-.164.207-.115.256.092.092.081-.064.135-.064.216 0 .208.164.256.115.092-.092-.064-.082-.064-.156 0-.237.164-.207.136-.256-.072-.092-.08.064-.155.064-.236 0-.207-.164-.256-.115-.092.092.064.081.064.155 0 .237zm1.538-1.54c-.164.208-.115.257.092.092.08-.064.135-.064.216 0 .207.165.256.116.092-.092-.064-.08-.064-.155 0-.236.164-.208.135-.257-.072-.092-.081.064-.155.064-.236 0-.207-.165-.256-.116-.092.092.064.08.064.155 0 .236zm-3.173 4.626c-.175.221-.037.359.184.184.086-.069.144-.069.23 0 .221.175.359.037.184-.184-.068-.087-.068-.166 0-.252.175-.222.059-.36-.162-.184-.087.068-.166.068-.252 0-.222-.175-.36-.038-.184.184.068.086.068.165 0 .252zm1.538-1.54c-.176.222-.038.36.183.185.087-.069.144-.069.23 0 .222.175.36.037.184-.184-.068-.087-.068-.166 0-.253.175-.22.06-.359-.162-.184-.086.069-.165.069-.252 0-.22-.175-.359-.037-.184.184.069.087.069.166 0 .253zm1.537-1.539c-.175.222-.037.36.184.184.086-.068.144-.068.23 0 .221.175.359.038.184-.184-.068-.086-.068-.165 0-.252.175-.221.059-.359-.162-.184-.087.069-.166.069-.252 0-.221-.175-.359-.037-.184.184.068.087.068.166 0 .252zm1.537-1.539c-.175.221-.037.36.184.184.087-.068.144-.068.23 0 .222.175.36.037.185-.184-.069-.086-.069-.166 0-.252.174-.221.058-.36-.163-.184-.086.068-.165.068-.252 0-.22-.175-.358-.037-.184.184.069.086.069.166 0 .252zm4.146 24.04c0-.17.138-.308.308-.308h.922c.17 0 .308.138.308.308v.924c0 .17-.138.308-.308.308h-.922a.308.308 0 0 1-.308-.308v-.924zm-1.537-3.078c0-.17.137-.308.307-.308h.923c.17 0 .307.138.307.308v.923c0 .17-.138.308-.307.308h-.923a.308.308 0 0 1-.307-.308v-.923zm3.075-3.079c0-.17.137-.308.307-.308h.923c.17 0 .307.138.307.308v.924c0 .17-.138.308-.307.308h-.923a.308.308 0 0 1-.307-.308v-.924zm1.537-3.078c0-.17.138-.308.308-.308h.922c.17 0 .308.138.308.308v.923c0 .17-.138.308-.308.308h-.922a.308.308 0 0 1-.308-.308v-.923zm0-3.079c0-.17.138-.308.308-.308h.922c.17 0 .308.138.308.308v.924c0 .17-.138.308-.308.308h-.922a.308.308 0 0 1-.308-.308v-.924zm1.61.89a.248.248 0 0 0 .269.27c.138-.014.299-.026.428-.026.128 0 .29.012.427.025a.248.248 0 0 0 .27-.269 4.94 4.94 0 0 1-.026-.428c0-.129.012-.29.025-.428a.248.248 0 0 0-.269-.27 4.89 4.89 0 0 1-.427.026 4.89 4.89 0 0 1-.428-.026.248.248 0 0 0-.27.27c.014.138.026.3.026.428 0 .129-.012.29-.025.428zm.099 1.295c-.217.274.14.632.415.414a.294.294 0 0 1 .366 0c.274.218.631-.14.414-.415a.295.295 0 0 1 0-.366c.217-.275-.14-.632-.415-.415a.295.295 0 0 1-.365 0c-.275-.217-.632.14-.415.415a.295.295 0 0 1 0 .366zm-.171-6.803c0-.17.137-.307.307-.307h.923c.17 0 .307.137.307.308v.923c0 .17-.137.308-.307.308h-.923a.308.308 0 0 1-.307-.308v-.924zm1.609.89a.248.248 0 0 0 .27.27c.137-.013.298-.025.427-.025s.29.012.428.025a.248.248 0 0 0 .269-.27 4.899 4.899 0 0 1-.025-.428c0-.129.012-.29.025-.428a.248.248 0 0 0-.269-.27c-.138.014-.3.026-.428.026s-.29-.012-.428-.025a.248.248 0 0 0-.269.269c.014.138.025.3.025.428a4.9 4.9 0 0 1-.025.428zm.2 1.327c-.198.252.03.48.281.282.098-.078.31-.078.408 0 .25.199.48-.03.28-.282-.077-.098-.052-.333.025-.431.199-.252-.03-.48-.281-.282-.098.078-.334.078-.432 0-.25-.199-.48.03-.281.282.078.098.078.333 0 .431zm-.272-6.834c0-.17.138-.308.308-.308h.922c.17 0 .308.138.308.308v.923c0 .17-.138.308-.308.308h-.922a.308.308 0 0 1-.308-.308v-.923zm1.538-3.079c0-.17.138-.308.307-.308h.923c.17 0 .307.138.307.308v.924c0 .17-.137.308-.307.308h-.923a.308.308 0 0 1-.307-.308v-.924z"/><path fill="#fff" d="M20.81 34.313c0-.17.138-.308.308-.308h.922c.17 0 .308.138.308.308v.923c0 .17-.138.308-.308.308h-.922a.308.308 0 0 1-.308-.307v-.924zm1.538-3.078c0-.17.137-.308.307-.308h.923c.17 0 .307.137.307.308v.923c0 .17-.138.308-.307.308h-.923a.308.308 0 0 1-.307-.308v-.924zm0-3.079c0-.17.137-.308.307-.308h.923c.17 0 .307.138.307.308v.924c0 .17-.138.307-.307.307h-.923a.308.308 0 0 1-.307-.308v-.923zm1.609.89a.248.248 0 0 0 .27.27c.137-.014.298-.026.427-.026s.29.012.428.025a.248.248 0 0 0 .269-.269 4.9 4.9 0 0 1-.025-.428c0-.129.012-.29.025-.429a.248.248 0 0 0-.27-.269c-.137.013-.298.025-.427.025s-.29-.012-.428-.025a.248.248 0 0 0-.269.27c.013.138.025.299.025.428s-.012.29-.025.428zm.1 1.294c-.217.275.14.632.414.415a.295.295 0 0 1 .366 0c.274.217.631-.14.414-.415a.296.296 0 0 1 0-.366c.217-.275-.14-.632-.414-.415a.295.295 0 0 1-.366 0c-.274-.217-.631.14-.414.415a.295.295 0 0 1 0 .366zm.1 1.572c-.198.251.03.48.281.282.098-.078.31-.078.407 0 .251.198.48-.03.282-.282-.078-.098-.053-.334.024-.432.198-.25-.03-.48-.281-.281-.098.077-.334.077-.432 0-.25-.199-.48.03-.281.281.077.098.077.334 0 .432zM22.62 36.53c-.2.251.03.48.28.282.099-.078.31-.078.408 0 .25.198.48-.031.281-.282-.077-.098-.053-.334.024-.432.199-.251-.03-.48-.28-.282-.099.078-.334.078-.432 0-.251-.198-.48.031-.282.282.078.098.078.334 0 .432zm3.075-9.236c-.199.252.03.48.28.282.099-.078.31-.078.408 0 .25.199.48-.03.281-.282-.077-.098-.053-.333.025-.431.198-.252-.031-.48-.282-.282-.098.078-.333.078-.431 0-.25-.199-.48.03-.281.282.077.098.077.333 0 .431zm1.732-4.707c-.175.221-.037.359.184.184.087-.069.144-.069.23 0 .222.175.36.037.184-.184-.068-.087-.068-.166 0-.252.175-.222.06-.36-.162-.184-.086.068-.165.068-.252 0-.22-.175-.359-.038-.184.184.069.086.069.165 0 .252zm-3.542 2.491c0-.17.138-.308.308-.308h.922c.17 0 .308.137.308.308V26c0 .17-.138.308-.308.308h-.922a.308.308 0 0 1-.308-.308v-.924zm1.538-4.618c0-.17.137-.308.307-.308h.923c.17 0 .307.138.307.308v.923c0 .17-.137.308-.307.308h-.923a.308.308 0 0 1-.307-.308v-.923zm1.537-4.618c0-.17.138-.308.308-.308h.922c.17 0 .308.138.308.308v.923c0 .17-.138.308-.308.308h-.922a.308.308 0 0 1-.308-.308v-.923zm3.148.89a.248.248 0 0 0 .268.27c.138-.014.3-.026.428-.026.13 0 .29.012.428.025a.248.248 0 0 0 .269-.269 4.938 4.938 0 0 1-.025-.428c0-.129.012-.29.025-.429a.248.248 0 0 0-.269-.269c-.138.013-.3.025-.428.025s-.29-.012-.428-.025a.248.248 0 0 0-.268.27c.013.138.024.299.024.428s-.011.29-.024.428zm1.537-1.539a.248.248 0 0 0 .269.269c.138-.013.299-.025.428-.025s.29.012.428.025a.248.248 0 0 0 .268-.27 4.902 4.902 0 0 1-.024-.428c0-.128.011-.29.024-.428a.248.248 0 0 0-.268-.269c-.139.013-.3.025-.428.025-.129 0-.29-.012-.428-.025a.248.248 0 0 0-.269.27c.013.138.025.299.025.428a4.9 4.9 0 0 1-.025.428zm1.538-1.54a.248.248 0 0 0 .269.27c.138-.013.299-.025.427-.025.13 0 .29.012.428.025a.248.248 0 0 0 .269-.27 4.938 4.938 0 0 1-.025-.428c0-.128.012-.29.025-.428a.248.248 0 0 0-.269-.27 4.89 4.89 0 0 1-.428.026 4.89 4.89 0 0 1-.427-.025.248.248 0 0 0-.27.269c.014.138.026.3.026.428 0 .129-.012.29-.025.428zm1.537-1.539a.248.248 0 0 0 .27.27 4.88 4.88 0 0 1 .427-.026c.129 0 .29.012.428.025a.248.248 0 0 0 .269-.269 4.9 4.9 0 0 1-.025-.428c0-.129.012-.29.025-.428a.248.248 0 0 0-.27-.27 4.544 4.544 0 0 1-.427.026c-.129 0-.29-.012-.428-.025a.248.248 0 0 0-.269.269c.013.138.025.3.025.428 0 .129-.012.29-.025.428zm-6.222.65c0-.17.138-.308.307-.308h.923c.17 0 .307.138.307.308v.923c0 .17-.137.308-.307.308h-.923a.308.308 0 0 1-.307-.308v-.923zm1.537-1.54c0-.17.138-.308.308-.308h.922c.17 0 .308.138.308.308v.924c0 .17-.138.308-.308.308h-.922a.308.308 0 0 1-.308-.308v-.924zm3.446 6.753c-.186.236.029.451.264.265.092-.073.154-.073.246 0 .235.186.45-.03.264-.265-.073-.092-.05-.176.023-.268.186-.236-.03-.451-.264-.265-.093.073-.177.073-.269 0-.235-.186-.45.03-.264.265.073.092.073.176 0 .268zm1.538-1.539c-.187.236.028.45.264.264.092-.072.153-.072.245 0 .236.187.45-.028.264-.264-.072-.092-.05-.176.023-.268.186-.236-.029-.451-.264-.265-.092.073-.176.073-.268 0-.236-.186-.45.029-.264.264.073.093.073.177 0 .269zm1.537-1.539c-.186.235.029.45.264.264.092-.073.154-.073.246 0 .235.187.45-.029.264-.264-.073-.092-.05-.177.023-.269.186-.235-.029-.45-.264-.264-.092.073-.177.073-.269 0-.235-.187-.45.029-.264.264.073.092.073.177 0 .269zm-1.441 3.071c-.175.22-.037.358.184.183.086-.068.144-.068.23 0 .222.175.36.037.184-.184-.068-.086-.068-.166 0-.252.175-.221.059-.36-.162-.184-.086.068-.166.068-.252 0-.221-.175-.359-.037-.184.184.069.086.069.166 0 .252zm1.538-1.54c-.175.221-.038.359.184.184.086-.069.144-.069.23 0 .221.175.359.037.184-.184-.068-.087-.068-.166 0-.252.175-.222.059-.36-.162-.184-.087.068-.166.068-.252 0-.222-.175-.36-.038-.184.184.068.086.068.165 0 .252zm-8.155-2.127c0-.17.138-.308.307-.308h.923c.17 0 .307.138.307.308v.923c0 .17-.137.308-.307.308h-.923a.308.308 0 0 1-.307-.308v-.923zm1.537-1.539c0-.17.138-.308.308-.308h.922c.17 0 .308.138.308.308v.923c0 .17-.138.308-.308.308h-.922a.308.308 0 0 1-.308-.308v-.923z"/><path fill="#fff" d="M31.573 11.224c0-.17.138-.308.308-.308h.922c.17 0 .308.138.308.308v.924c0 .17-.138.308-.308.308h-.922a.308.308 0 0 1-.308-.308v-.924zm.171 5.263c-.217.275.14.632.415.415a.295.295 0 0 1 .366 0c.274.217.631-.14.414-.415a.296.296 0 0 1 0-.366c.217-.275-.14-.633-.414-.415a.295.295 0 0 1-.366 0c-.275-.218-.632.14-.415.415a.295.295 0 0 1 0 .366zm1.538-1.539c-.217.274.14.632.414.414a.295.295 0 0 1 .366 0c.275.218.632-.14.415-.414a.295.295 0 0 1 0-.367c.217-.274-.14-.632-.415-.414a.294.294 0 0 1-.366 0c-.274-.218-.631.14-.414.414a.295.295 0 0 1 0 .367zm1.538-1.539c-.218.274.14.632.414.414a.295.295 0 0 1 .366 0c.274.218.631-.14.414-.415a.295.295 0 0 1 0-.366c.217-.275-.14-.632-.414-.415a.295.295 0 0 1-.366 0c-.275-.217-.632.14-.414.415a.296.296 0 0 1 0 .367zm1.537-1.539c-.217.274.14.631.415.414a.295.295 0 0 1 .366 0c.274.217.63-.14.414-.415a.296.296 0 0 1 0-.366c.217-.275-.14-.632-.414-.415a.295.295 0 0 1-.366 0c-.275-.217-.632.14-.415.415a.295.295 0 0 1 0 .366zm-2.975 4.65c-.198.25.03.48.282.281.098-.077.309-.077.407 0 .25.199.48-.03.281-.281-.077-.098-.053-.334.024-.432.199-.251-.03-.48-.28-.282-.099.078-.334.078-.432 0-.251-.198-.48.03-.282.282.078.098.078.334 0 .432zm1.538-1.54c-.199.252.03.48.281.282.098-.078.31-.078.407 0 .251.199.48-.03.282-.282-.078-.098-.053-.333.024-.431.198-.252-.03-.48-.281-.282-.098.078-.334.078-.432 0-.25-.199-.48.03-.281.282.077.098.077.333 0 .431zm1.537-1.539c-.198.251.031.48.282.282.098-.078.309-.078.407 0 .25.198.48-.03.281-.282-.077-.098-.053-.334.025-.432.198-.25-.031-.48-.282-.281-.098.077-.333.077-.431 0-.251-.199-.48.03-.282.281.078.098.078.334 0 .432zm-4.612 4.618c-.199.251.03.48.281.282.098-.078.31-.078.407 0 .251.198.48-.031.282-.282-.078-.098-.054-.334.024-.432.198-.251-.03-.48-.282-.282-.098.078-.333.078-.43 0-.252-.198-.48.031-.282.282.077.098.077.334 0 .432zm-6.422 3.94c0-.17.137-.308.307-.308h.923c.17 0 .307.138.307.308v.924c0 .17-.137.307-.307.307h-.923a.308.308 0 0 1-.307-.308V22zm1.537-4.618c0-.17.138-.308.308-.308h.922c.17 0 .308.138.308.308v.924c0 .17-.138.308-.308.308h-.922a.308.308 0 0 1-.308-.308v-.924zm1.538-1.539c0-.17.138-.308.307-.308h.923c.17 0 .307.138.307.308v.923c0 .17-.137.308-.307.308h-.923a.308.308 0 0 1-.307-.308v-.923zm1.537-1.539c0-.17.138-.308.308-.308h.922c.17 0 .308.138.308.308v.923c0 .17-.138.308-.308.308h-.922a.308.308 0 0 1-.308-.308v-.923zm1.538-1.539c0-.17.138-.308.308-.308h.922c.17 0 .308.138.308.308v.923c0 .17-.138.308-.308.308h-.922a.308.308 0 0 1-.308-.308v-.923z"/><path fill="#fff" d="M33.11 11.224c0-.17.138-.308.308-.308h.923c.17 0 .307.138.307.308v.924c0 .17-.138.308-.307.308h-.923a.308.308 0 0 1-.307-.308v-.924zm-4.54 7.047a.248.248 0 0 0 .269.27c.138-.014.299-.026.428-.026.128 0 .29.012.427.025a.248.248 0 0 0 .27-.269 4.94 4.94 0 0 1-.026-.428c0-.129.012-.29.025-.428a.248.248 0 0 0-.268-.27c-.139.014-.3.026-.428.026-.129 0-.29-.012-.428-.025a.248.248 0 0 0-.269.269c.013.138.025.3.025.428 0 .129-.012.29-.025.428zm1.637-.245c-.217.275.14.632.414.415a.295.295 0 0 1 .366 0c.275.217.632-.14.415-.415a.295.295 0 0 1 0-.366c.217-.275-.14-.632-.415-.415a.295.295 0 0 1-.366 0c-.274-.217-.631.14-.414.415a.296.296 0 0 1 0 .366z"/></svg>